<svg xmlns="http://www.w3.org/2000/svg" xmlns:xlink="http://www.w3.org/1999/xlink" version="1.1" data-diagram-type="SEQUENCE" style="width:1170px;height:973px;" width="1170px" height="973px" viewBox="0 0 1170 973" zoomAndPan="magnify" preserveAspectRatio="none" contentStyleType="text/css"><?plantuml 1.2026.7beta11?><defs/><g font-family="sans-serif" lengthAdjust="spacing"><g><title>Doctor</title><rect x="31.253" y="85.133" width="8" height="802.32" fill="#000" fill-opacity="0"/><line x1="34.753" y1="85.133" x2="34.753" y2="887.453" style="stroke:#94A3B8;stroke-width:0.5;stroke-dasharray:5,5;"/></g><g><title>API Gateway</title><rect x="198.457" y="85.133" width="8" height="802.32" fill="#000" fill-opacity="0"/><line x1="201.957" y1="85.133" x2="201.957" y2="887.453" style="stroke:#94A3B8;stroke-width:0.5;stroke-dasharray:5,5;"/></g><g><title>OAuth2 Server</title><rect x="389.806" y="85.133" width="8" height="802.32" fill="#000" fill-opacity="0"/><line x1="393.306" y1="85.133" x2="393.306" y2="887.453" style="stroke:#94A3B8;stroke-width:0.5;stroke-dasharray:5,5;"/></g><g><title>LifePlus</title><rect x="486.62" y="85.133" width="8" height="802.32" fill="#000" fill-opacity="0"/><line x1="490.12" y1="85.133" x2="490.12" y2="887.453" style="stroke:#94A3B8;stroke-width:0.5;stroke-dasharray:5,5;"/></g><g><title></title><rect x="485.12" y="505.859" width="10" height="87.398" fill="#FFF" style="stroke:#181818;stroke-width:1;"/></g><g><title>Chat</title><rect x="733.975" y="85.133" width="8" height="802.32" fill="#000" fill-opacity="0"/><line x1="737.475" y1="85.133" x2="737.475" y2="887.453" style="stroke:#94A3B8;stroke-width:0.5;stroke-dasharray:5,5;"/></g><g><title>Database</title><rect x="803.722" y="85.133" width="8" height="802.32" fill="#000" fill-opacity="0"/><line x1="807.222" y1="85.133" x2="807.222" y2="887.453" style="stroke:#94A3B8;stroke-width:0.5;stroke-dasharray:5,5;"/></g><g><title>RabbitMQ</title><rect x="889.567" y="85.133" width="8" height="802.32" fill="#000" fill-opacity="0"/><line x1="893.067" y1="85.133" x2="893.067" y2="887.453" style="stroke:#94A3B8;stroke-width:0.5;stroke-dasharray:5,5;"/></g><g><title>Notification API</title><rect x="1099.128" y="85.133" width="8" height="802.32" fill="#000" fill-opacity="0"/><line x1="1102.628" y1="85.133" x2="1102.628" y2="887.453" style="stroke:#94A3B8;stroke-width:0.5;stroke-dasharray:5,5;"/></g><text x="10" y="82.067" fill="#0F172A" font-size="13" textLength="43.507" font-family="Helvetica">Doctor</text><ellipse cx="34.753" cy="18.5" rx="8" ry="8" fill="#FFF" style="stroke:#6366F1;stroke-width:0.5;"/><path d="M34.753,26.5 L34.753,53.5 M21.753,34.5 L47.753,34.5 M34.753,53.5 L21.753,68.5 M34.753,53.5 L47.753,68.5" style="stroke:#6366F1;stroke-width:0.5;" fill="none"/><rect x="153.894" y="39.867" width="96.126" height="44.266" fill="#FFF" style="stroke:#6366F1;stroke-width:0.5;" rx="2.5" ry="2.5"/><text x="160.894" y="58.934" fill="#0F172A" font-size="13" textLength="82.126" font-family="Helvetica">API Gateway</text><text x="183.225" y="74.067" fill="#0F172A" font-size="13" textLength="37.464" font-family="Helvetica">:8080</text><rect x="338.438" y="39.867" width="109.735" height="44.266" fill="#FFF" style="stroke:#6366F1;stroke-width:0.5;" rx="2.5" ry="2.5"/><text x="345.438" y="58.934" fill="#0F172A" font-size="13" textLength="95.735" font-family="Helvetica">OAuth2 Server</text><text x="374.574" y="74.067" fill="#0F172A" font-size="13" textLength="37.464" font-family="Helvetica">:8090</text><rect x="458.174" y="39.867" width="63.893" height="44.266" fill="#FFF" style="stroke:#6366F1;stroke-width:0.5;" rx="2.5" ry="2.5"/><text x="465.174" y="58.934" fill="#0F172A" font-size="13" textLength="49.893" font-family="Helvetica">LifePlus</text><text x="471.388" y="74.067" fill="#0F172A" font-size="13" textLength="37.464" font-family="Helvetica">:8082</text><rect x="711.743" y="39.867" width="51.464" height="44.266" fill="#FFF" style="stroke:#6366F1;stroke-width:0.5;" rx="2.5" ry="2.5"/><text x="722.285" y="58.934" fill="#0F172A" font-size="13" textLength="30.38" font-family="Helvetica">Chat</text><text x="718.743" y="74.067" fill="#0F172A" font-size="13" textLength="37.464" font-family="Helvetica">:8085</text><text x="773.207" y="82.067" fill="#0F172A" font-size="13" textLength="62.029" font-family="Helvetica">Database</text><path d="M789.222,34 C789.222,24 807.222,24 807.222,24 C807.222,24 825.222,24 825.222,34 L825.222,60 C825.222,70 807.222,70 807.222,70 C807.222,70 789.222,70 789.222,60 L789.222,34" style="stroke:#94A3B8;stroke-width:0.5;" fill="#F1F5F9"/><path d="M789.222,34 C789.222,44 807.222,44 807.222,44 C807.222,44 825.222,44 825.222,34" style="stroke:#94A3B8;stroke-width:0.5;" fill="none"/><path d="M856.236,60 L929.897,60 C934.897,60 934.897,72.566 934.897,72.566 C934.897,72.566 934.897,85.133 929.897,85.133 L856.236,85.133 C851.236,85.133 851.236,72.566 851.236,72.566 C851.236,72.566 851.236,60 856.236,60" style="stroke:#94A3B8;stroke-width:0.5;" fill="#F1F5F9"/><path d="M929.897,60 C924.897,60 924.897,72.566 924.897,72.566 C924.897,85.133 929.897,85.133 929.897,85.133" style="stroke:#94A3B8;stroke-width:0.5;" fill="none"/><text x="856.236" y="77.067" fill="#0F172A" font-size="13" textLength="63.661" font-family="Helvetica">RabbitMQ</text><rect x="1045.983" y="39.867" width="113.29" height="44.266" fill="#FFF" style="stroke:#6366F1;stroke-width:0.5;" rx="2.5" ry="2.5"/><text x="1052.983" y="58.934" fill="#0F172A" font-size="13" textLength="99.29" font-family="Helvetica">Notification API</text><text x="1083.896" y="74.067" fill="#0F172A" font-size="13" textLength="37.464" font-family="Helvetica">:8083</text><text x="10" y="899.52" fill="#0F172A" font-size="13" textLength="43.507" font-family="Helvetica">Doctor</text><ellipse cx="34.753" cy="911.086" rx="8" ry="8" fill="#FFF" style="stroke:#6366F1;stroke-width:0.5;"/><path d="M34.753,919.086 L34.753,946.086 M21.753,927.086 L47.753,927.086 M34.753,946.086 L21.753,961.086 M34.753,946.086 L47.753,961.086" style="stroke:#6366F1;stroke-width:0.5;" fill="none"/><rect x="153.894" y="887.453" width="96.126" height="44.266" fill="#FFF" style="stroke:#6366F1;stroke-width:0.5;" rx="2.5" ry="2.5"/><text x="160.894" y="906.52" fill="#0F172A" font-size="13" textLength="82.126" font-family="Helvetica">API Gateway</text><text x="183.225" y="921.653" fill="#0F172A" font-size="13" textLength="37.464" font-family="Helvetica">:8080</text><rect x="338.438" y="887.453" width="109.735" height="44.266" fill="#FFF" style="stroke:#6366F1;stroke-width:0.5;" rx="2.5" ry="2.5"/><text x="345.438" y="906.52" fill="#0F172A" font-size="13" textLength="95.735" font-family="Helvetica">OAuth2 Server</text><text x="374.574" y="921.653" fill="#0F172A" font-size="13" textLength="37.464" font-family="Helvetica">:8090</text><rect x="458.174" y="887.453" width="63.893" height="44.266" fill="#FFF" style="stroke:#6366F1;stroke-width:0.5;" rx="2.5" ry="2.5"/><text x="465.174" y="906.52" fill="#0F172A" font-size="13" textLength="49.893" font-family="Helvetica">LifePlus</text><text x="471.388" y="921.653" fill="#0F172A" font-size="13" textLength="37.464" font-family="Helvetica">:8082</text><rect x="711.743" y="887.453" width="51.464" height="44.266" fill="#FFF" style="stroke:#6366F1;stroke-width:0.5;" rx="2.5" ry="2.5"/><text x="722.285" y="906.52" fill="#0F172A" font-size="13" textLength="30.38" font-family="Helvetica">Chat</text><text x="718.743" y="921.653" fill="#0F172A" font-size="13" textLength="37.464" font-family="Helvetica">:8085</text><text x="773.207" y="899.52" fill="#0F172A" font-size="13" textLength="62.029" font-family="Helvetica">Database</text><path d="M789.222,912.586 C789.222,902.586 807.222,902.586 807.222,902.586 C807.222,902.586 825.222,902.586 825.222,912.586 L825.222,938.586 C825.222,948.586 807.222,948.586 807.222,948.586 C807.222,948.586 789.222,948.586 789.222,938.586 L789.222,912.586" style="stroke:#94A3B8;stroke-width:0.5;" fill="#F1F5F9"/><path d="M789.222,912.586 C789.222,922.586 807.222,922.586 807.222,922.586 C807.222,922.586 825.222,922.586 825.222,912.586" style="stroke:#94A3B8;stroke-width:0.5;" fill="none"/><path d="M856.236,887.453 L929.897,887.453 C934.897,887.453 934.897,900.02 934.897,900.02 C934.897,900.02 934.897,912.586 929.897,912.586 L856.236,912.586 C851.236,912.586 851.236,900.02 851.236,900.02 C851.236,900.02 851.236,887.453 856.236,887.453" style="stroke:#94A3B8;stroke-width:0.5;" fill="#F1F5F9"/><path d="M929.897,887.453 C924.897,887.453 924.897,900.02 924.897,900.02 C924.897,912.586 929.897,912.586 929.897,912.586" style="stroke:#94A3B8;stroke-width:0.5;" fill="none"/><text x="856.236" y="904.52" fill="#0F172A" font-size="13" textLength="63.661" font-family="Helvetica">RabbitMQ</text><rect x="1045.983" y="887.453" width="113.29" height="44.266" fill="#FFF" style="stroke:#6366F1;stroke-width:0.5;" rx="2.5" ry="2.5"/><text x="1052.983" y="906.52" fill="#0F172A" font-size="13" textLength="99.29" font-family="Helvetica">Notification API</text><text x="1083.896" y="921.653" fill="#0F172A" font-size="13" textLength="37.464" font-family="Helvetica">:8083</text><rect x="10" y="113.699" width="1149.273" height="3" fill="#F1F5F9" style="stroke:#F1F5F9;stroke-width:1;"/><line x1="10" y1="113.699" x2="1159.273" y2="113.699" style="stroke:#000;stroke-width:1;"/><line x1="10" y1="116.699" x2="1159.273" y2="116.699" style="stroke:#000;stroke-width:1;"/><rect x="520.942" y="103.133" width="127.388" height="23.133" fill="#F1F5F9" style="stroke:#000;stroke-width:2;"/><text x="526.942" y="119.2" fill="#0F172A" font-size="13" textLength="108.862" font-weight="700" font-family="Helvetica">Authentication</text><polygon points="189.957,153.398,199.957,157.398,189.957,161.398,193.957,157.398" fill="#94A3B8" style="stroke:#94A3B8;stroke-width:1;stroke-linejoin:miter;stroke-miterlimit:10;"/><line x1="34.753" y1="157.398" x2="195.957" y2="157.398" style="stroke:#94A3B8;stroke-width:1;"/><text x="41.753" y="152.333" fill="#475569" font-size="13" textLength="74.445" font-family="Helvetica">POST /login</text><polygon points="381.306,182.531,391.306,186.531,381.306,190.531,385.306,186.531" fill="#94A3B8" style="stroke:#94A3B8;stroke-width:1;stroke-linejoin:miter;stroke-miterlimit:10;"/><line x1="201.957" y1="186.531" x2="387.306" y2="186.531" style="stroke:#94A3B8;stroke-width:1;"/><text x="208.957" y="181.465" fill="#475569" font-size="13" textLength="167.35" font-family="Helvetica">OAuth2 client_credentials</text><polygon points="212.957,211.664,202.957,215.664,212.957,219.664,208.957,215.664" fill="#94A3B8" style="stroke:#94A3B8;stroke-width:1;stroke-linejoin:miter;stroke-miterlimit:10;"/><line x1="206.957" y1="215.664" x2="392.306" y2="215.664" style="stroke:#94A3B8;stroke-width:1;stroke-dasharray:2,2;"/><text x="218.957" y="210.598" fill="#475569" font-size="13" textLength="113.515" font-family="Helvetica">JWT access token</text><polygon points="45.753,240.797,35.753,244.797,45.753,248.797,41.753,244.797" fill="#94A3B8" style="stroke:#94A3B8;stroke-width:1;stroke-linejoin:miter;stroke-miterlimit:10;"/><line x1="39.753" y1="244.797" x2="200.957" y2="244.797" style="stroke:#94A3B8;stroke-width:1;stroke-dasharray:2,2;"/><text x="51.753" y="239.731" fill="#475569" font-size="13" textLength="143.203" font-family="Helvetica">authenticated session</text><rect x="10" y="273.363" width="1149.273" height="3" fill="#F1F5F9" style="stroke:#F1F5F9;stroke-width:1;"/><line x1="10" y1="273.363" x2="1159.273" y2="273.363" style="stroke:#000;stroke-width:1;"/><line x1="10" y1="276.363" x2="1159.273" y2="276.363" style="stroke:#000;stroke-width:1;"/><rect x="513.998" y="262.797" width="141.277" height="23.133" fill="#F1F5F9" style="stroke:#000;stroke-width:2;"/><text x="519.998" y="278.864" fill="#0F172A" font-size="13" textLength="122.751" font-weight="700" font-family="Helvetica">Appointment list</text><polygon points="189.957,313.063,199.957,317.063,189.957,321.063,193.957,317.063" fill="#94A3B8" style="stroke:#94A3B8;stroke-width:1;stroke-linejoin:miter;stroke-miterlimit:10;"/><line x1="34.753" y1="317.063" x2="195.957" y2="317.063" style="stroke:#94A3B8;stroke-width:1;"/><text x="41.753" y="311.997" fill="#475569" font-size="13" textLength="133.491" font-family="Helvetica">opens appointments</text><polygon points="478.12,342.195,488.12,346.195,478.12,350.195,482.12,346.195" fill="#94A3B8" style="stroke:#94A3B8;stroke-width:1;stroke-linejoin:miter;stroke-miterlimit:10;"/><line x1="201.957" y1="346.195" x2="484.12" y2="346.195" style="stroke:#94A3B8;stroke-width:1;"/><text x="208.957" y="341.129" fill="#475569" font-size="13" textLength="209.98" font-family="Helvetica">/app/appointments (Bearer JWT)</text><polygon points="795.222,371.328,805.222,375.328,795.222,379.328,799.222,375.328" fill="#94A3B8" style="stroke:#94A3B8;stroke-width:1;stroke-linejoin:miter;stroke-miterlimit:10;"/><line x1="490.12" y1="375.328" x2="801.222" y2="375.328" style="stroke:#94A3B8;stroke-width:1;"/><text x="497.12" y="370.262" fill="#475569" font-size="13" textLength="125.957" font-family="Helvetica">query Appointment</text><polygon points="501.12,400.461,491.12,404.461,501.12,408.461,497.12,404.461" fill="#94A3B8" style="stroke:#94A3B8;stroke-width:1;stroke-linejoin:miter;stroke-miterlimit:10;"/><line x1="495.12" y1="404.461" x2="806.222" y2="404.461" style="stroke:#94A3B8;stroke-width:1;stroke-dasharray:2,2;"/><text x="507.12" y="399.395" fill="#475569" font-size="13" textLength="170.104" font-family="Helvetica">appointments for the user</text><polygon points="45.753,429.594,35.753,433.594,45.753,437.594,41.753,433.594" fill="#94A3B8" style="stroke:#94A3B8;stroke-width:1;stroke-linejoin:miter;stroke-miterlimit:10;"/><line x1="39.753" y1="433.594" x2="489.12" y2="433.594" style="stroke:#94A3B8;stroke-width:1;stroke-dasharray:2,2;"/><text x="51.753" y="428.528" fill="#475569" font-size="13" textLength="196.263" font-family="Helvetica">grid + teleconsultation button</text><rect x="10" y="462.16" width="1149.273" height="3" fill="#F1F5F9" style="stroke:#F1F5F9;stroke-width:1;"/><line x1="10" y1="462.16" x2="1159.273" y2="462.16" style="stroke:#000;stroke-width:1;"/><line x1="10" y1="465.16" x2="1159.273" y2="465.16" style="stroke:#000;stroke-width:1;"/><rect x="514.303" y="451.594" width="140.667" height="23.133" fill="#F1F5F9" style="stroke:#000;stroke-width:2;"/><text x="520.303" y="467.661" fill="#0F172A" font-size="13" textLength="122.142" font-weight="700" font-family="Helvetica">Teleconsultation</text><polygon points="473.12,501.859,483.12,505.859,473.12,509.859,477.12,505.859" fill="#94A3B8" style="stroke:#94A3B8;stroke-width:1;stroke-linejoin:miter;stroke-miterlimit:10;"/><line x1="34.753" y1="505.859" x2="479.12" y2="505.859" style="stroke:#94A3B8;stroke-width:1;"/><text x="41.753" y="500.793" fill="#475569" font-size="13" textLength="145.818" font-family="Helvetica">starts teleconsultation</text><polygon points="795.222,530.992,805.222,534.992,795.222,538.992,799.222,534.992" fill="#94A3B8" style="stroke:#94A3B8;stroke-width:1;stroke-linejoin:miter;stroke-miterlimit:10;"/><line x1="495.12" y1="534.992" x2="801.222" y2="534.992" style="stroke:#94A3B8;stroke-width:1;"/><text x="502.12" y="529.926" fill="#475569" font-size="13" textLength="183.777" font-family="Helvetica">validate appointment status</text><polygon points="725.475,560.125,735.475,564.125,725.475,568.125,729.475,564.125" fill="#94A3B8" style="stroke:#94A3B8;stroke-width:1;stroke-linejoin:miter;stroke-miterlimit:10;"/><line x1="495.12" y1="564.125" x2="731.475" y2="564.125" style="stroke:#94A3B8;stroke-width:1;"/><text x="502.12" y="559.059" fill="#475569" font-size="13" textLength="223.355" font-family="Helvetica">open WebSocket / STOMP channel</text><polygon points="45.753,589.258,35.753,593.258,45.753,597.258,41.753,593.258" fill="#94A3B8" style="stroke:#94A3B8;stroke-width:1;stroke-linejoin:miter;stroke-miterlimit:10;"/><line x1="39.753" y1="593.258" x2="484.12" y2="593.258" style="stroke:#94A3B8;stroke-width:1;stroke-dasharray:2,2;"/><text x="51.753" y="588.192" fill="#475569" font-size="13" textLength="257.391" font-family="Helvetica">WebRTC room + chat + medical record</text><rect x="10" y="621.824" width="1149.273" height="3" fill="#F1F5F9" style="stroke:#F1F5F9;stroke-width:1;"/><line x1="10" y1="621.824" x2="1159.273" y2="621.824" style="stroke:#000;stroke-width:1;"/><line x1="10" y1="624.824" x2="1159.273" y2="624.824" style="stroke:#000;stroke-width:1;"/><rect x="460.751" y="611.258" width="247.771" height="23.133" fill="#F1F5F9" style="stroke:#000;stroke-width:2;"/><text x="466.751" y="627.325" fill="#0F172A" font-size="13" textLength="229.246" font-weight="700" font-family="Helvetica">Medical record and notification</text><polygon points="478.12,661.523,488.12,665.523,478.12,669.523,482.12,665.523" fill="#94A3B8" style="stroke:#94A3B8;stroke-width:1;stroke-linejoin:miter;stroke-miterlimit:10;"/><line x1="34.753" y1="665.523" x2="484.12" y2="665.523" style="stroke:#94A3B8;stroke-width:1;"/><text x="41.753" y="660.458" fill="#475569" font-size="13" textLength="123.741" font-family="Helvetica">fills medical record</text><polygon points="795.222,690.656,805.222,694.656,795.222,698.656,799.222,694.656" fill="#94A3B8" style="stroke:#94A3B8;stroke-width:1;stroke-linejoin:miter;stroke-miterlimit:10;"/><line x1="490.12" y1="694.656" x2="801.222" y2="694.656" style="stroke:#94A3B8;stroke-width:1;"/><text x="497.12" y="689.59" fill="#475569" font-size="13" textLength="143.514" font-family="Helvetica">persist MedicalRecord</text><polygon points="881.067,719.789,891.067,723.789,881.067,727.789,885.067,723.789" fill="#94A3B8" style="stroke:#94A3B8;stroke-width:1;stroke-linejoin:miter;stroke-miterlimit:10;"/><line x1="490.12" y1="723.789" x2="887.067" y2="723.789" style="stroke:#94A3B8;stroke-width:1;"/><text x="497.12" y="718.723" fill="#475569" font-size="13" textLength="186.818" font-family="Helvetica">publish to notification-queue</text><polygon points="1090.628,748.922,1100.628,752.922,1090.628,756.922,1094.628,752.922" fill="#94A3B8" style="stroke:#94A3B8;stroke-width:1;stroke-linejoin:miter;stroke-miterlimit:10;"/><line x1="893.067" y1="752.922" x2="1096.628" y2="752.922" style="stroke:#94A3B8;stroke-width:1;"/><text x="900.067" y="747.856" fill="#475569" font-size="13" textLength="177.436" font-family="Helvetica">@RabbitListener consumes</text><polygon points="818.222,778.055,808.222,782.055,818.222,786.055,814.222,782.055" fill="#94A3B8" style="stroke:#94A3B8;stroke-width:1;stroke-linejoin:miter;stroke-miterlimit:10;"/><line x1="812.222" y1="782.055" x2="1101.628" y2="782.055" style="stroke:#94A3B8;stroke-width:1;"/><text x="824.222" y="776.989" fill="#475569" font-size="13" textLength="121.088" font-family="Helvetica">persist notification</text><polygon points="904.067,807.188,894.067,811.188,904.067,815.188,900.067,811.188" fill="#94A3B8" style="stroke:#94A3B8;stroke-width:1;stroke-linejoin:miter;stroke-miterlimit:10;"/><line x1="898.067" y1="811.188" x2="1101.628" y2="811.188" style="stroke:#94A3B8;stroke-width:1;"/><text x="910.067" y="806.122" fill="#475569" font-size="13" textLength="185.561" font-family="Helvetica">notification-ui-update-queue</text><polygon points="501.12,836.32,491.12,840.32,501.12,844.32,497.12,840.32" fill="#94A3B8" style="stroke:#94A3B8;stroke-width:1;stroke-linejoin:miter;stroke-miterlimit:10;"/><line x1="495.12" y1="840.32" x2="892.067" y2="840.32" style="stroke:#94A3B8;stroke-width:1;stroke-dasharray:2,2;"/><text x="507.12" y="835.254" fill="#475569" font-size="13" textLength="104.444" font-family="Helvetica">UI update event</text><polygon points="45.753,865.453,35.753,869.453,45.753,873.453,41.753,869.453" fill="#94A3B8" style="stroke:#94A3B8;stroke-width:1;stroke-linejoin:miter;stroke-miterlimit:10;"/><line x1="39.753" y1="869.453" x2="489.12" y2="869.453" style="stroke:#94A3B8;stroke-width:1;stroke-dasharray:2,2;"/><text x="51.753" y="864.387" fill="#475569" font-size="13" textLength="176.147" font-family="Helvetica">notification badge updated</text><?plantuml-src ZPPjRnev4CVVxwSOfI-krOcIXoPD8kLK86gIKqb8eCgRaqvcFGiknjxONdAvJt_ZDG-xX3EBX40xFyz_PZnZhvq9bJF3vZ1cwMnYTA5uJqjjm1ccB9bGkSIkAJjbNByADO6CIOiL2yUC5T9zryhTipd2BSe5Ef6otSnG_8jmTBBR62BuS9WTVJskhkyOer-Nneilx6HylcsihFxozVJqxA82Z8IJ67D_hnrsjyhm8JlAJhEBRKeRZkR_8l54JES9KyVKHEuGApyxqQZY6el9zlGyruhsSx_i1gtAdfsSdML7kx2Ox3LpRCniWygkoMYkAogc-LXWqK0mO56r4ebMLUg2xvSAM5IgHABjdpfjzczUmA8RLo8ngG4pDBiYPqswfGf7PIjWJ7o8BmMg57-8ZBvgpmwjwAx-vrseYDbnBTGgtDHhar1lI3LlBX_mHW6KQ9CGhiL2aB_zhRYr8Du6wOnDtatIxhjX1KVJMaAnS_fUymOdOqdjEORvdibbrZOu2qiiVWvwPAzKnpaZneNRaNpo6-qAtQxh1Uob49V086SI7GC4eNxH7qvFVFsrbhPDvQUOMdanbv_pDtBXby843JF0B2oO4JHeQ46AoTIH3yxChFH9KsZelhNaUOvspY2ZYF1paZ1_Bi2rzZz9lfbMEEWCxk26ENnbRt-fo_F3yyC3BtBpNCSUEeMR7bCoPe6c12y2sFavkgsZVhe7ih31tN6W1eCwr9io5u3J4kZTTaO9Nzu0SB2w2qhRTJTvyQSr73onyLYu_cFvkFzOTqctiyZelSG9hKZmBhW_ATdxXz7TzoIvkWAV1xNtYhkwIa9LeFK79GsNC7WOZg0jzKIeX1xGOvyY6PObIAMWzN-d1hdtGszBIGcqLWx-V1u1IrEqblPpXi4B6PSwjFkR49239P0Y2S7bkHRApSbAcslTZl1qZie2su1s5ULWGEOsMTfLAtpi8WsqyM5zIZpaG-aIIZKrRrN9X1wtrfvgJZBVd5E4mg89Jge9JOpWy3iub9XgPUbbBnINPi8jCnjjssgP1KLgMqDQssvyyue5rQhiece62oO5zuPAhDwBA-oAytsrh1eyutYeqnawQCDmzD0VG3fbIg5ydn6XJwCU6Atdb1XXZdxco6dF91WAp_24OoqmdsM_HW1J75IrAtSadGafxRRhQf8v6kjROUdxgKRq7prHZAbPfjHjDRLMEJG98GIM0q3ijp12FyWZAkgAij1qLYG1s1Qj-jiWfMfDgX2j8lTRKH5Tf_Zp3e8HSE7Rx5srQpKQCpx1vGB-7m00?></g></svg>